<svg version="1.2" xmlns="http://www.w3.org/2000/svg" viewBox="0 0 470 200" width="470" height="200">
	<title>Контроль_Москвы_логотипы_в_векторе-ai</title>
	<style>
		.s0 { fill: #a61e5d } 
	</style>
	<g id="Слой 1">
		<g id="&lt;Group&gt;">
			<g id="&lt;Group&gt;">
			</g>
			<g id="&lt;Group&gt;">
				<g id="&lt;Group&gt;">
					<g id="&lt;Group&gt;">
					</g>
				</g>
				<g id="&lt;Group&gt;">
					<g id="&lt;Group&gt;">
					</g>
				</g>
				<g id="&lt;Group&gt;">
					<g id="&lt;Group&gt;">
					</g>
				</g>
				<g id="&lt;Group&gt;">
					<g id="&lt;Group&gt;">
					</g>
				</g>
				<g id="&lt;Group&gt;">
					<g id="&lt;Group&gt;">
					</g>
				</g>
				<g id="&lt;Group&gt;">
					<g id="&lt;Group&gt;">
					</g>
				</g>
				<g id="&lt;Group&gt;">
					<g id="&lt;Group&gt;">
					</g>
				</g>
				<g id="&lt;Group&gt;">
					<g id="&lt;Group&gt;">
					</g>
				</g>
				<g id="&lt;Group&gt;">
					<g id="&lt;Group&gt;">
					</g>
				</g>
				<g id="&lt;Group&gt;">
					<g id="&lt;Group&gt;">
					</g>
				</g>
				<g id="&lt;Group&gt;">
					<g id="&lt;Group&gt;">
					</g>
				</g>
				<g id="&lt;Group&gt;">
					<g id="&lt;Group&gt;">
					</g>
				</g>
				<g id="&lt;Group&gt;">
					<g id="&lt;Group&gt;">
					</g>
				</g>
				<g id="&lt;Group&gt;">
					<g id="&lt;Group&gt;">
					</g>
				</g>
			</g>
			<g id="&lt;Group&gt;">
				<g id="&lt;Group&gt;">
					<g id="&lt;Group&gt;">
					</g>
				</g>
				<g id="&lt;Group&gt;">
					<g id="&lt;Group&gt;">
					</g>
				</g>
				<g id="&lt;Group&gt;">
					<g id="&lt;Group&gt;">
					</g>
				</g>
				<g id="&lt;Group&gt;">
					<g id="&lt;Group&gt;">
					</g>
				</g>
				<g id="&lt;Group&gt;">
					<g id="&lt;Group&gt;">
					</g>
				</g>
				<g id="&lt;Group&gt;">
					<g id="&lt;Group&gt;">
					</g>
				</g>
				<g id="&lt;Group&gt;">
					<g id="&lt;Group&gt;">
					</g>
				</g>
				<g id="&lt;Group&gt;">
					<g id="&lt;Group&gt;">
					</g>
				</g>
			</g>
			<g id="&lt;Group&gt;">
				<g id="&lt;Group&gt;">
				</g>
			</g>
			<g id="&lt;Group&gt;">
				<g id="&lt;Group&gt;">
					<g id="&lt;Group&gt;">
					</g>
				</g>
				<g id="&lt;Group&gt;">
					<g id="&lt;Group&gt;">
					</g>
				</g>
			</g>
			<g id="&lt;Group&gt;">
				<g id="&lt;Group&gt;">
				</g>
			</g>
			<g id="&lt;Group&gt;">
			</g>
		</g>
		<g id="&lt;Group&gt;">
			<g id="&lt;Group&gt;">
			</g>
			<g id="&lt;Group&gt;">
				<g id="&lt;Group&gt;">
				</g>
				<g id="&lt;Group&gt;">
				</g>
				<g id="&lt;Group&gt;">
				</g>
				<g id="&lt;Group&gt;">
				</g>
				<g id="&lt;Group&gt;">
				</g>
				<g id="&lt;Group&gt;">
				</g>
				<g id="&lt;Group&gt;">
				</g>
				<g id="&lt;Group&gt;">
				</g>
				<g id="&lt;Group&gt;">
				</g>
				<g id="&lt;Group&gt;">
				</g>
				<g id="&lt;Group&gt;">
				</g>
				<g id="&lt;Group&gt;">
				</g>
				<g id="&lt;Group&gt;">
				</g>
				<g id="&lt;Group&gt;">
				</g>
			</g>
			<g id="&lt;Group&gt;">
				<g id="&lt;Group&gt;">
				</g>
				<g id="&lt;Group&gt;">
				</g>
				<g id="&lt;Group&gt;">
				</g>
				<g id="&lt;Group&gt;">
				</g>
				<g id="&lt;Group&gt;">
				</g>
				<g id="&lt;Group&gt;">
				</g>
				<g id="&lt;Group&gt;">
				</g>
				<g id="&lt;Group&gt;">
				</g>
				<g id="&lt;Group&gt;">
				</g>
				<g id="&lt;Group&gt;">
				</g>
				<g id="&lt;Group&gt;">
				</g>
			</g>
			<g id="&lt;Group&gt;">
				<g id="&lt;Group&gt;">
					<g id="&lt;Group&gt;">
						<g id="&lt;Group&gt;">
						</g>
						<g id="&lt;Group&gt;">
						</g>
					</g>
				</g>
				<g id="&lt;Group&gt;">
					<g id="&lt;Group&gt;">
						<g id="&lt;Group&gt;">
						</g>
						<g id="&lt;Group&gt;">
						</g>
					</g>
				</g>
				<g id="&lt;Group&gt;">
				</g>
				<g id="&lt;Group&gt;">
				</g>
				<g id="&lt;Group&gt;">
				</g>
				<g id="&lt;Group&gt;">
				</g>
				<g id="&lt;Group&gt;">
				</g>
				<g id="&lt;Group&gt;">
				</g>
				<g id="&lt;Group&gt;">
				</g>
				<g id="&lt;Group&gt;">
				</g>
				<g id="&lt;Group&gt;">
				</g>
				<g id="&lt;Group&gt;">
				</g>
				<g id="&lt;Group&gt;">
				</g>
				<g id="&lt;Group&gt;">
				</g>
				<g id="&lt;Group&gt;">
				</g>
			</g>
		</g>
		<g id="&lt;Group&gt;">
		</g>
		<g id="&lt;Group&gt;">
		</g>
		<g id="&lt;Group&gt;">
			<g id="&lt;Group&gt;">
			</g>
			<g id="&lt;Group&gt;">
			</g>
			<g id="&lt;Group&gt;">
				<g id="&lt;Group&gt;">
					<g id="&lt;Group&gt;">
					</g>
				</g>
				<g id="&lt;Group&gt;">
					<g id="&lt;Group&gt;">
					</g>
				</g>
				<g id="&lt;Group&gt;">
					<g id="&lt;Group&gt;">
					</g>
				</g>
				<g id="&lt;Group&gt;">
					<g id="&lt;Group&gt;">
					</g>
				</g>
				<g id="&lt;Group&gt;">
					<g id="&lt;Group&gt;">
					</g>
				</g>
				<g id="&lt;Group&gt;">
					<g id="&lt;Group&gt;">
					</g>
				</g>
				<g id="&lt;Group&gt;">
					<g id="&lt;Group&gt;">
					</g>
				</g>
				<g id="&lt;Group&gt;">
					<g id="&lt;Group&gt;">
					</g>
				</g>
				<g id="&lt;Group&gt;">
					<g id="&lt;Group&gt;">
					</g>
				</g>
				<g id="&lt;Group&gt;">
					<g id="&lt;Group&gt;">
					</g>
				</g>
				<g id="&lt;Group&gt;">
					<g id="&lt;Group&gt;">
					</g>
				</g>
				<g id="&lt;Group&gt;">
					<g id="&lt;Group&gt;">
					</g>
				</g>
				<g id="&lt;Group&gt;">
					<g id="&lt;Group&gt;">
					</g>
				</g>
				<g id="&lt;Group&gt;">
					<g id="&lt;Group&gt;">
					</g>
				</g>
			</g>
		</g>
	</g>
	<path id="&lt;Path&gt;" class="s0" d="m188 49.8h4l7.1 11.9h9.9l-9.8-16.1 9.7-15h-9.2l-7.4 12.1h-4.3v-12.1h-8.7v31.1h8.7z"/>
	<path id="&lt;Compound Path&gt;" fill-rule="evenodd" class="s0" d="m211 56.1q-1.7-2.9-1.7-6.5 0-3.5 1.7-6.4 1.8-2.8 4.9-4.4 3-1.6 7-1.6 3.9 0 7 1.6 3.1 1.6 4.8 4.4 1.8 2.8 1.8 6.4 0 3.6-1.8 6.5-1.7 2.8-4.8 4.4-3.1 1.6-7 1.6-3.9 0-7-1.6-3.1-1.6-4.9-4.4zm6.8-6.5q0 2.7 1.4 4.3 1.4 1.5 3.7 1.5 2.2 0 3.6-1.5 1.4-1.6 1.4-4.3 0-2.7-1.4-4.2-1.4-1.5-3.6-1.5-2.3 0-3.7 1.5-1.4 1.5-1.4 4.2z"/>
	<path id="&lt;Path&gt;" class="s0" d="m248.8 53.3h8.7v8.4h8.5v-24.1h-8.5v8.9h-8.7v-8.9h-8.4v24.1h8.4z"/>
	<path id="&lt;Path&gt;" class="s0" d="m277 61.7h8.4v-17.4h7.8v-6.7h-24v6.7h7.8z"/>
	<path id="&lt;Compound Path&gt;" fill-rule="evenodd" class="s0" d="m304.9 70.3h-8.4v-32.7h8v2.4q2.4-2.8 7.1-2.8 3.3 0 6 1.5 2.7 1.6 4.3 4.4 1.6 2.8 1.6 6.6 0 3.7-1.6 6.5-1.6 2.8-4.3 4.4-2.7 1.5-6 1.5-4.2 0-6.7-2.5zm-0.1-20.7q0 2.7 1.4 4.2 1.4 1.5 3.6 1.5 2.3 0 3.7-1.5 1.4-1.5 1.4-4.2 0-2.7-1.4-4.2-1.4-1.5-3.7-1.5-2.2 0-3.6 1.5-1.4 1.5-1.4 4.2z"/>
	<path id="&lt;Compound Path&gt;" fill-rule="evenodd" class="s0" d="m327.5 56.1q-1.7-2.9-1.7-6.5 0-3.5 1.7-6.4 1.8-2.8 4.9-4.4 3.1-1.6 7-1.6 3.9 0 7 1.6 3.1 1.6 4.8 4.4 1.8 2.8 1.8 6.4 0 3.6-1.8 6.5-1.7 2.8-4.8 4.4-3.1 1.6-7 1.6-3.9 0-7-1.6-3.1-1.6-4.9-4.4zm6.8-6.5q0 2.7 1.4 4.3 1.5 1.5 3.7 1.5 2.2 0 3.6-1.5 1.4-1.6 1.4-4.3 0-2.7-1.4-4.2-1.4-1.5-3.6-1.5-2.2 0-3.7 1.5-1.4 1.5-1.4 4.2z"/>
	<path id="&lt;Path&gt;" class="s0" d="m362.9 60.6q1.7-1.7 2.5-4.8 0.7-3.1 0.9-7.8l0.2-3.7h6.1v17.4h8.4v-24.1h-21.7l-0.4 10.1q-0.1 2.4-0.4 3.9-0.2 1.5-0.9 2.4-0.7 0.9-2.1 0.9-0.3 0-1.1-0.1l-0.4 6.9q2.6 0.6 4.1 0.6 3.1 0 4.8-1.7z"/>
	<path id="&lt;Compound Path&gt;" fill-rule="evenodd" class="s0" d="m399.8 61.7h-13.1v-24.1h8.4v7.5h5.8q4.8 0 7.3 2.1 2.6 2.1 2.5 6 0 4-2.9 6.3-2.9 2.3-8 2.2zm-0.8-5.8q3.2 0 3.2-2.9 0-1.4-0.8-2.1-0.8-0.6-2.4-0.7h-3.9v5.7z"/>
	<path id="&lt;Path&gt;" class="s0" d="m215.6 75h-7.3l-10.7 18-10.9-18h-7.2v31.2h8.1v-16.2l8 13.1h3.9l8-13.4v16.5h8.2z"/>
	<path id="&lt;Compound Path&gt;" fill-rule="evenodd" class="s0" d="m245.5 87.6q1.8 2.9 1.8 6.5 0 3.6-1.8 6.4-1.7 2.9-4.8 4.5-3.1 1.6-7 1.6-3.9 0-7-1.6-3.1-1.6-4.9-4.5-1.7-2.8-1.7-6.4 0-3.6 1.7-6.4 1.8-2.9 4.9-4.5 3.1-1.5 7-1.5 3.9 0 7 1.5 3.1 1.6 4.8 4.4zm-6.8 6.5q0-2.7-1.4-4.2-1.4-1.5-3.6-1.5-2.3 0-3.7 1.5-1.4 1.5-1.4 4.2 0 2.7 1.4 4.2 1.4 1.6 3.7 1.6 2.2 0 3.6-1.6 1.4-1.5 1.4-4.2z"/>
	<path id="&lt;Path&gt;" class="s0" d="m263.3 88.4q3.1 0 4.8 3.2l6.5-3.3q-1.2-3.1-4.2-4.9-3-1.7-7.1-1.7-4 0-7.1 1.5-3.2 1.6-4.9 4.4-1.8 2.9-1.8 6.5 0 3.6 1.8 6.4 1.7 2.9 4.9 4.5 3.1 1.6 7.1 1.6 4.1 0 7.1-1.8 3-1.7 4.2-4.9l-6.5-3.3q-1.7 3.3-4.8 3.3-2.3 0-3.8-1.6-1.5-1.5-1.5-4.2 0-2.7 1.5-4.2 1.5-1.5 3.8-1.5z"/>
	<path id="&lt;Path&gt;" class="s0" d="m295 106.2h10l-8.6-12.6 8.1-11.5h-9l-5.9 8.9h-3v-8.9h-8.5v24.1h8.5v-8.6h2.8z"/>
	<path id="&lt;Compound Path&gt;" fill-rule="evenodd" class="s0" d="m327.2 93.5q4.2 1.4 4.2 5.7 0 3.3-2.6 5.1-2.5 1.9-7.4 1.9h-13.6v-24.1h12.9q4.8 0 7.4 1.6 2.6 1.7 2.6 4.6 0 1.8-0.9 3.1-0.9 1.3-2.6 2.1zm-11.8-1.7h4.6q2.9 0 2.9-2.2 0-2.1-2.9-2.1h-4.6zm8.3 6.7q0-2.2-3-2.2h-5.3v4.4h5.2q3.1 0 3.1-2.2z"/>
	<path id="&lt;Compound Path&gt;" fill-rule="evenodd" class="s0" d="m348.4 106.2h-12.8v-24.1h8.4v7.4h5.4q4.8 0.1 7.2 2.2 2.4 2.1 2.4 5.9 0 4.1-2.8 6.3-2.8 2.3-7.8 2.3zm-0.9-5.8q3.2 0 3.2-2.9 0-1.4-0.8-2.1-0.8-0.7-2.4-0.7h-3.5v5.6z"/>
	<path id="&lt;Path&gt;" class="s0" d="m361 106.2h8.4v-24.1h-8.4z"/>
	<path id="&lt;Path&gt;" class="s0" d="m193 124.7v-3.2h-14v20.6h3.8v-17.4z"/>
	<path id="&lt;Compound Path&gt;" fill-rule="evenodd" class="s0" d="m205.9 130.1q1 1.8 1 4.1 0 2.4-1 4.2-1.1 1.8-3 2.9-1.9 1-4.4 1-2.3 0-4.3-1-1.9-1.1-2.9-2.9-1.1-1.8-1.1-4.2 0-2.3 1.1-4.1 1-1.8 2.9-2.9 2-1 4.3-1 2.5 0 4.4 1 1.9 1.1 3 2.9zm-2.7 4.1q0-2.2-1.3-3.5-1.3-1.4-3.4-1.4-2 0-3.3 1.4-1.3 1.3-1.3 3.5 0 2.3 1.3 3.6 1.3 1.4 3.3 1.4 2.1 0 3.4-1.4 1.3-1.3 1.3-3.6z"/>
	<path id="&lt;Compound Path&gt;" fill-rule="evenodd" class="s0" d="m226.2 130q1 1.9 1 4.2 0 2.4-1 4.3-1 1.8-2.8 2.8-1.9 1-4.2 1-3.1 0-5-2.1v7.6h-3.7v-21.4h3.5v2q1-1.1 2.3-1.6 1.3-0.6 2.9-0.6 2.3 0 4.2 1 1.8 1 2.8 2.8zm-2.7 4.2q0-2.2-1.3-3.5-1.3-1.4-3.4-1.4-1.3 0-2.3 0.6-1.1 0.6-1.7 1.8-0.6 1.1-0.6 2.5 0 1.5 0.6 2.6 0.6 1.2 1.7 1.8 1 0.6 2.3 0.6 2.1 0 3.4-1.4 1.3-1.3 1.3-3.6z"/>
	<path id="&lt;Compound Path&gt;" fill-rule="evenodd" class="s0" d="m245.2 130.1q1.1 1.8 1.1 4.1 0 2.4-1.1 4.2-1.1 1.8-3 2.9-1.9 1-4.3 1-2.4 0-4.3-1-1.9-1.1-3-2.9-1.1-1.8-1.1-4.2 0-2.3 1.1-4.1 1.1-1.8 3-2.9 1.9-1 4.3-1 2.4 0 4.3 1 1.9 1.1 3 2.9zm-2.7 4.1q0-2.2-1.3-3.5-1.3-1.4-3.3-1.4-2.1 0-3.4 1.4-1.3 1.3-1.3 3.5 0 2.3 1.3 3.6 1.3 1.4 3.4 1.4 2 0 3.3-1.4 1.3-1.3 1.3-3.6z"/>
	<path id="&lt;Compound Path&gt;" fill-rule="evenodd" class="s0" d="m264.1 139h2.4v6.6h-3.5v-3.5h-12.1v3.5h-3.4v-6.6h0.7q1.5-0.1 2.1-1.9 0.5-1.9 0.7-5.3l0.2-5.4h12.9zm-3.6-9.5h-6.1l-0.1 2.5q-0.1 2.8-0.4 4.5-0.3 1.7-1.2 2.5h7.8z"/>
	<path id="&lt;Path&gt;" class="s0" d="m276.9 129.3q1.2 0 2.2 0.6 1 0.5 1.7 1.6l2.8-1.6q-0.9-1.8-2.6-2.7-1.8-1-4.1-1-2.5 0-4.4 1-1.9 1.1-3 2.9-1.1 1.8-1.1 4.1 0 2.4 1.1 4.2 1.1 1.8 3 2.9 2 1 4.4 1 2.3 0 4.1-1 1.7-0.9 2.6-2.7l-2.8-1.6q-0.7 1.1-1.7 1.6-1 0.6-2.2 0.6-2.1 0-3.5-1.4-1.3-1.3-1.3-3.6 0-2.2 1.4-3.5 1.3-1.4 3.4-1.4z"/>
	<path id="&lt;Path&gt;" class="s0" d="m302.1 126.4h-4l-4.6 6.3h-3v-6.3h-3.7v15.7h3.7v-6.3h2.9l4.7 6.3h4.3l-6.1-8.1z"/>
	<path id="&lt;Compound Path&gt;" fill-rule="evenodd" class="s0" d="m315.9 127.9q1.8 1.6 1.8 5v9.2h-3.4v-1.9q-0.7 1-2 1.6-1.2 0.5-3 0.5-1.7 0-3.1-0.6-1.3-0.6-2-1.7-0.7-1-0.7-2.4 0-2.1 1.5-3.4 1.6-1.3 5-1.3h4.1v-0.2q0-1.7-1-2.5-1-0.9-3-0.9-1.3 0-2.6 0.4-1.2 0.4-2.1 1.1l-1.5-2.6q1.3-1 3-1.5 1.7-0.5 3.7-0.5 3.5 0 5.3 1.7zm-1.8 7.5h-3.8q-3.2 0-3.2 2.1 0 1 0.8 1.5 0.8 0.6 2.2 0.6 1.4 0 2.4-0.6 1.1-0.6 1.6-1.8z"/>
	<path id="&lt;Compound Path&gt;" fill-rule="evenodd" class="s0" d="m328.4 126.4h7.2v15.7h-3.3v-4.7h-4.2l-3.2 4.7h-3.9l3.7-5.2q-1.7-0.6-2.6-1.8-0.9-1.3-0.9-3.1 0-2.7 1.9-4.1 1.9-1.5 5.3-1.5zm0.1 3.1q-3.6 0-3.6 2.7 0 2.6 3.5 2.6h3.9v-5.3z"/>
	<path id="&lt;Path&gt;" class="s0" d="m355.7 129.3q1.2 0 2.3 0.6 1 0.5 1.7 1.6l2.8-1.6q-0.9-1.8-2.7-2.7-1.7-1-4-1-2.5 0-4.4 1-2 1.1-3 2.9-1.1 1.8-1.1 4.1 0 2.4 1.1 4.2 1 1.8 3 2.9 1.9 1 4.4 1 2.3 0 4-1 1.8-0.9 2.7-2.7l-2.8-1.6q-0.7 1.1-1.7 1.6-1.1 0.6-2.3 0.6-2 0-3.4-1.4-1.3-1.3-1.3-3.6 0-2.2 1.3-3.5 1.4-1.4 3.4-1.4z"/>
	<path id="&lt;Compound Path&gt;" fill-rule="evenodd" class="s0" d="m381.4 130q1 1.9 1 4.2 0 2.4-1 4.3-1.1 1.8-2.9 2.8-1.8 1-4.1 1-3.2 0-5-2.1v7.6h-3.7v-21.4h3.5v2q0.9-1.1 2.3-1.6 1.3-0.6 2.9-0.6 2.3 0 4.1 1 1.8 1 2.9 2.8zm-2.7 4.2q0-2.2-1.4-3.5-1.3-1.4-3.3-1.4-1.3 0-2.4 0.6-1 0.6-1.7 1.8-0.6 1.1-0.6 2.5 0 1.5 0.6 2.6 0.7 1.2 1.7 1.8 1.1 0.6 2.4 0.6 2 0 3.3-1.4 1.4-1.3 1.4-3.6z"/>
	<path id="&lt;Compound Path&gt;" fill-rule="evenodd" class="s0" d="m399.7 130.1q1 1.8 1 4.2 0 0.4 0 1.1h-12.3q0.3 1.8 1.7 2.8 1.3 1 3.4 1 2.5 0 4.2-1.7l2 2.2q-1.1 1.3-2.7 2-1.6 0.6-3.6 0.6-2.6 0-4.6-1-2-1.1-3-2.9-1.1-1.8-1.1-4.2 0-2.2 1-4.1 1.1-1.8 2.9-2.9 1.9-1 4.2-1 2.3 0 4.1 1 1.8 1 2.8 2.9zm-2.5 2.9q-0.2-1.7-1.4-2.8-1.2-1-3-1-1.8 0-3 1-1.2 1-1.5 2.8z"/>
	<path id="&lt;Compound Path&gt;" fill-rule="evenodd" class="s0" d="m419 139h2.3v6.6h-3.4v-3.5h-12.1v3.5h-3.4v-6.6h0.7q1.5-0.1 2-1.9 0.6-1.9 0.8-5.3l0.2-5.4h12.9zm-3.7-9.5h-6l-0.1 2.5q-0.1 2.8-0.4 4.5-0.3 1.7-1.2 2.5h7.7z"/>
	<path id="&lt;Compound Path&gt;" fill-rule="evenodd" class="s0" d="m437.6 132.9v9.2h-3.4v-1.9q-0.7 1-2 1.6-1.2 0.5-3 0.5-1.7 0-3.1-0.6-1.3-0.6-2-1.7-0.7-1-0.7-2.4 0-2.1 1.5-3.4 1.6-1.3 5-1.3h4.1v-0.2q0-1.7-1-2.5-1-0.9-3-0.9-1.3 0-2.6 0.4-1.2 0.4-2.1 1.1l-1.5-2.6q1.3-1 3-1.5 1.7-0.5 3.7-0.5 3.5 0 5.3 1.7 1.8 1.6 1.8 5zm-3.6 2.5h-3.8q-3.2 0-3.2 2.1 0 1 0.8 1.5 0.8 0.6 2.2 0.6 1.4 0 2.4-0.6 1.1-0.6 1.6-1.8z"/>
	<path id="&lt;Compound Path&gt;" fill-rule="evenodd" class="s0" d="m50.5 76.9c0-6.7 5.3-12.1 11.8-12.4 1-7.3 7.3-13 14.8-13 7.6 0 13.9 5.7 14.9 13 6.5 0.3 11.8 5.7 11.8 12.4 0 6.8-5.5 12.3-12.3 12.3h-12.4v8.1h30.3c1.8 0 3.2 1.5 3.2 3.3v8.9c1.6 0.7 2.6 2.3 2.6 4.1v7.1h-7.8v5.4h11.8v-57.4c-5.9-0.7-10.4-5.7-10.4-11.8 0-6.5 5.3-11.9 11.9-11.9 6.6 0 11.9 5.4 11.9 11.9 0 5.8-4.1 10.6-9.5 11.7v57.5h5.4c1.1 0 2 0.9 2 2 0 1-0.9 1.9-2 1.9h-71.8c-1.1 0-1.9-0.9-1.9-1.9 0-1.1 0.8-2 1.9-2h7.8v-5.4h-7.8v-7.1c0-1.8 1.1-3.4 2.6-4.1v-8.9c0-1.8 1.5-3.3 3.3-3.3h12.6v-8.1h-12.4c-6.8 0-12.3-5.5-12.3-12.3zm70.2-11.9c4.4 0 8-3.6 8-8.1 0-4.4-3.6-8-8-8-4.4 0-8.1 3.6-8.1 8 0 4.5 3.7 8.1 8.1 8.1zm-17.1 55.7h-35.2v5.4h35.2zm7.8-7.1c0-0.4-0.3-0.7-0.7-0.7h-49.4c-0.4 0-0.7 0.3-0.7 0.7v3.3h50.8zm-2.6-12.4h-45.6v7.9h45.6zm-54.5-24.4c0 4.7 3.8 8.5 8.5 8.5h12.4v-17.6c0-1 0.9-1.9 1.9-1.9 1.1 0 2 0.9 2 1.9v17.6h12.4c4.6 0 8.5-3.8 8.5-8.5 0-4.6-3.9-8.4-8.5-8.4h-3.3v-2c0-6.1-4.9-11.1-11.1-11.1-6.1 0-11 5-11 11.1v2h-3.3c-4.7 0-8.5 3.8-8.5 8.4z"/>
	<path id="&lt;Compound Path&gt;" fill-rule="evenodd" class="s0" d="m33.1 25.9h116.9v111.4c0 6.4-4.9 13.3-15.6 13.3h-11.7c-11.5 0-20.2 2.1-30.7 12.8-3 2.9-7.8 8.7-8.7 9.8l-0.4 0.4-0.6 0.3c-1.2 0.3-2.4-0.6-2.5-1.8v-0.2-21.3h-31.1c-10.7 0-15.6-6.9-15.6-13.3zm3.8 111.5c0 6.5 6.1 9.4 11.8 9.4h35v20c1.8-2.1 3.9-4.5 5.6-6.1 11.4-11.6 20.9-13.9 33.4-13.9h11.7c5.7 0 11.8-2.9 11.8-9.4v-107.6h-109.3z"/>
</svg>